<svg width="200" height="60" viewBox="0 0 200 60" fill="none" xmlns="http://www.w3.org/2000/svg">
<rect width="200" height="60" fill="#F6F0E6"/>
<path d="M49.9815 43V16.8182H56.3097V37.8608H67.2017V43H49.9815ZM94.1697 29.9091C94.1697 32.7898 93.6158 35.2315 92.5078 37.2344C91.3999 39.2372 89.8999 40.7585 88.0078 41.7983C86.1243 42.8381 84.0107 43.358 81.6669 43.358C79.3146 43.358 77.1967 42.8338 75.3132 41.7855C73.4297 40.7372 71.9339 39.2159 70.826 37.2216C69.7266 35.2187 69.1768 32.7812 69.1768 29.9091C69.1768 27.0284 69.7266 24.5866 70.826 22.5838C71.9339 20.581 73.4297 19.0597 75.3132 18.0199C77.1967 16.9801 79.3146 16.4602 81.6669 16.4602C84.0107 16.4602 86.1243 16.9801 88.0078 18.0199C89.8999 19.0597 91.3999 20.581 92.5078 22.5838C93.6158 24.5866 94.1697 27.0284 94.1697 29.9091ZM87.701 29.9091C87.701 28.2045 87.4581 26.7642 86.9723 25.5881C86.495 24.4119 85.8047 23.5213 84.9013 22.9162C84.0064 22.3111 82.9283 22.0085 81.6669 22.0085C80.4141 22.0085 79.3359 22.3111 78.4325 22.9162C77.5291 23.5213 76.8345 24.4119 76.3487 25.5881C75.8714 26.7642 75.6328 28.2045 75.6328 29.9091C75.6328 31.6136 75.8714 33.054 76.3487 34.2301C76.8345 35.4062 77.5291 36.2969 78.4325 36.902C79.3359 37.5071 80.4141 37.8097 81.6669 37.8097C82.9283 37.8097 84.0064 37.5071 84.9013 36.902C85.8047 36.2969 86.495 35.4062 86.9723 34.2301C87.4581 33.054 87.701 31.6136 87.701 29.9091ZM115.046 25.3707C114.901 24.8338 114.688 24.3608 114.407 23.9517C114.126 23.5341 113.781 23.1804 113.371 22.8906C112.962 22.6009 112.494 22.3835 111.965 22.2386C111.437 22.0852 110.857 22.0085 110.227 22.0085C108.957 22.0085 107.857 22.3153 106.928 22.929C106.008 23.5426 105.296 24.4375 104.793 25.6136C104.29 26.7812 104.039 28.2003 104.039 29.8707C104.039 31.5497 104.282 32.9815 104.768 34.1662C105.254 35.3509 105.957 36.2543 106.877 36.8764C107.798 37.4986 108.914 37.8097 110.227 37.8097C111.386 37.8097 112.366 37.6222 113.167 37.2472C113.977 36.8636 114.59 36.3224 115.008 35.6236C115.425 34.9247 115.634 34.1023 115.634 33.1562L116.81 33.2969H110.444V28.6818H121.732V32.1463C121.732 34.4901 121.234 36.4972 120.237 38.1676C119.248 39.8381 117.884 41.1207 116.146 42.0156C114.415 42.9105 112.425 43.358 110.175 43.358C107.678 43.358 105.484 42.8168 103.592 41.7344C101.7 40.652 100.225 39.1094 99.1683 37.1065C98.1115 35.0952 97.5831 32.7088 97.5831 29.9474C97.5831 27.7997 97.9027 25.8949 98.5419 24.233C99.1811 22.5625 100.072 21.1477 101.214 19.9886C102.364 18.8295 103.694 17.9517 105.202 17.3551C106.719 16.7585 108.352 16.4602 110.099 16.4602C111.616 16.4602 113.026 16.6776 114.33 17.1122C115.643 17.5469 116.802 18.1605 117.808 18.9531C118.822 19.7457 119.644 20.6875 120.275 21.7784C120.906 22.8693 121.298 24.0668 121.451 25.3707H115.046ZM150.174 29.9091C150.174 32.7898 149.62 35.2315 148.512 37.2344C147.404 39.2372 145.904 40.7585 144.012 41.7983C142.128 42.8381 140.015 43.358 137.671 43.358C135.319 43.358 133.201 42.8338 131.317 41.7855C129.434 40.7372 127.938 39.2159 126.83 37.2216C125.73 35.2187 125.181 32.7812 125.181 29.9091C125.181 27.0284 125.73 24.5866 126.83 22.5838C127.938 20.581 129.434 19.0597 131.317 18.0199C133.201 16.9801 135.319 16.4602 137.671 16.4602C140.015 16.4602 142.128 16.9801 144.012 18.0199C145.904 19.0597 147.404 20.581 148.512 22.5838C149.62 24.5866 150.174 27.0284 150.174 29.9091ZM143.705 29.9091C143.705 28.2045 143.462 26.7642 142.976 25.5881C142.499 24.4119 141.809 23.5213 140.905 22.9162C140.01 22.3111 138.932 22.0085 137.671 22.0085C136.418 22.0085 135.34 22.3111 134.436 22.9162C133.533 23.5213 132.838 24.4119 132.353 25.5881C131.875 26.7642 131.637 28.2045 131.637 29.9091C131.637 31.6136 131.875 33.054 132.353 34.2301C132.838 35.4062 133.533 36.2969 134.436 36.902C135.34 37.5071 136.418 37.8097 137.671 37.8097C138.932 37.8097 140.01 37.5071 140.905 36.902C141.809 36.2969 142.499 35.4062 142.976 34.2301C143.462 33.054 143.705 31.6136 143.705 29.9091Z" fill="#18443D"/>
</svg>
